# This file is brought to you by Roblox Corporation
# Generated by Roblox Studio

mtllib import.mtl

g Root1

v 1.5 1.5 1.5 
v 1.5 1.5 -1.5 
v -1.5 1.5 1.5 
v -1.5 1.5 -1.5 
v 1.5 1.5 -1.5 
v -1.5 -1.5 -1.5 
v -1.5 1.5 -1.5 
v 1.5 -1.5 -1.5 
v 1.5 1.5 1.5 
v 1.5 -1.5 -1.5 
v 1.5 1.5 -1.5 
v 1.5 -1.5 1.5 
v -1.5 -1.5 -1.5 
v 1.5 -1.5 -1.5 
v 1.5 -1.5 1.5 
v -1.5 -1.5 1.5 
v -1.5 1.5 -1.5 
v -1.5 -1.5 1.5 
v -1.5 1.5 1.5 
v -1.5 -1.5 -1.5 
v -1.5 1.5 1.5 
v 1.5 -1.5 1.5 
v 1.5 1.5 1.5 
v -1.5 -1.5 1.5 

vn 0 1 0 
vn 0 1 0 
vn 0 1 0 
vn 0 1 0 
vn 0 0 -1 
vn 0 0 -1 
vn 0 0 -1 
vn 0 0 -1 
vn 1 0 0 
vn 1 0 0 
vn 1 0 0 
vn 1 0 0 
vn 0 -1 0 
vn 0 -1 0 
vn 0 -1 0 
vn 0 -1 0 
vn -1 0 0 
vn -1 0 0 
vn -1 0 0 
vn -1 0 0 
vn 0 0 1 
vn 0 0 1 
vn 0 0 1 
vn 0 0 1 

vt 0 1 
vt 0 0 
vt 1 1 
vt 1 0 
vt 0 1 
vt 1 0 
vt 1 1 
vt 0 0 
vt 1 1 
vt 0 0 
vt 0 1 
vt 1 0 
vt 1 0 
vt 0 0 
vt 0 1 
vt 1 1 
vt 0 1 
vt 1 0 
vt 1 1 
vt 0 0 
vt 1 1 
vt 0 0 
vt 0 1 
vt 1 0 

usemtl Root1Mtl

f 1/1/1 2/2/2 3/3/3 
f 3/3/3 2/2/2 4/4/4 
f 5/5/5 6/6/6 7/7/7 
f 6/6/6 5/5/5 8/8/8 
f 9/9/9 10/10/10 11/11/11 
f 10/10/10 9/9/9 12/12/12 
f 13/13/13 14/14/14 15/15/15 
f 13/13/13 15/15/15 16/16/16 
f 17/17/17 18/18/18 19/19/19 
f 18/18/18 17/17/17 20/20/20 
f 21/21/21 22/22/22 23/23/23 
f 22/22/22 21/21/21 24/24/24 

g Root2

v 1.5 1.5 1.5 
v 1.5 1.5 -1.5 
v -1.5 1.5 1.5 
v -1.5 1.5 -1.5 
v 1.5 1.5 -1.5 
v -1.5 -1.5 -1.5 
v -1.5 1.5 -1.5 
v 1.5 -1.5 -1.5 
v 1.5 1.5 1.5 
v 1.5 -1.5 -1.5 
v 1.5 1.5 -1.5 
v 1.5 -1.5 1.5 
v -1.5 -1.5 -1.5 
v 1.5 -1.5 -1.5 
v 1.5 -1.5 1.5 
v -1.5 -1.5 1.5 
v -1.5 1.5 -1.5 
v -1.5 -1.5 1.5 
v -1.5 1.5 1.5 
v -1.5 -1.5 -1.5 
v -1.5 1.5 1.5 
v 1.5 -1.5 1.5 
v 1.5 1.5 1.5 
v -1.5 -1.5 1.5 

vn 0 1 0 
vn 0 1 0 
vn 0 1 0 
vn 0 1 0 
vn 0 0 -1 
vn 0 0 -1 
vn 0 0 -1 
vn 0 0 -1 
vn 1 0 0 
vn 1 0 0 
vn 1 0 0 
vn 1 0 0 
vn 0 -1 0 
vn 0 -1 0 
vn 0 -1 0 
vn 0 -1 0 
vn -1 0 0 
vn -1 0 0 
vn -1 0 0 
vn -1 0 0 
vn 0 0 1 
vn 0 0 1 
vn 0 0 1 
vn 0 0 1 

vt 0 1 
vt 0 0 
vt 1 1 
vt 1 0 
vt 0 1 
vt 1 0 
vt 1 1 
vt 0 0 
vt 1 1 
vt 0 0 
vt 0 1 
vt 1 0 
vt 1 0 
vt 0 0 
vt 0 1 
vt 1 1 
vt 0 1 
vt 1 0 
vt 1 1 
vt 0 0 
vt 1 1 
vt 0 0 
vt 0 1 
vt 1 0 

usemtl Root2Mtl

f 25/25/25 26/26/26 27/27/27 
f 27/27/27 26/26/26 28/28/28 
f 29/29/29 30/30/30 31/31/31 
f 30/30/30 29/29/29 32/32/32 
f 33/33/33 34/34/34 35/35/35 
f 34/34/34 33/33/33 36/36/36 
f 37/37/37 38/38/38 39/39/39 
f 37/37/37 39/39/39 40/40/40 
f 41/41/41 42/42/42 43/43/43 
f 42/42/42 41/41/41 44/44/44 
f 45/45/45 46/46/46 47/47/47 
f 46/46/46 45/45/45 48/48/48 

g Root3

v 1.5 1.5 1.5 
v 1.5 1.5 -1.5 
v -1.5 1.5 1.5 
v -1.5 1.5 -1.5 
v 1.5 1.5 -1.5 
v -1.5 -1.5 -1.5 
v -1.5 1.5 -1.5 
v 1.5 -1.5 -1.5 
v 1.5 1.5 1.5 
v 1.5 -1.5 -1.5 
v 1.5 1.5 -1.5 
v 1.5 -1.5 1.5 
v -1.5 -1.5 -1.5 
v 1.5 -1.5 -1.5 
v 1.5 -1.5 1.5 
v -1.5 -1.5 1.5 
v -1.5 1.5 -1.5 
v -1.5 -1.5 1.5 
v -1.5 1.5 1.5 
v -1.5 -1.5 -1.5 
v -1.5 1.5 1.5 
v 1.5 -1.5 1.5 
v 1.5 1.5 1.5 
v -1.5 -1.5 1.5 

vn 0 1 0 
vn 0 1 0 
vn 0 1 0 
vn 0 1 0 
vn 0 0 -1 
vn 0 0 -1 
vn 0 0 -1 
vn 0 0 -1 
vn 1 0 0 
vn 1 0 0 
vn 1 0 0 
vn 1 0 0 
vn 0 -1 0 
vn 0 -1 0 
vn 0 -1 0 
vn 0 -1 0 
vn -1 0 0 
vn -1 0 0 
vn -1 0 0 
vn -1 0 0 
vn 0 0 1 
vn 0 0 1 
vn 0 0 1 
vn 0 0 1 

vt 0 1 
vt 0 0 
vt 1 1 
vt 1 0 
vt 0 1 
vt 1 0 
vt 1 1 
vt 0 0 
vt 1 1 
vt 0 0 
vt 0 1 
vt 1 0 
vt 1 0 
vt 0 0 
vt 0 1 
vt 1 1 
vt 0 1 
vt 1 0 
vt 1 1 
vt 0 0 
vt 1 1 
vt 0 0 
vt 0 1 
vt 1 0 

usemtl Root3Mtl

f 49/49/49 50/50/50 51/51/51 
f 51/51/51 50/50/50 52/52/52 
f 53/53/53 54/54/54 55/55/55 
f 54/54/54 53/53/53 56/56/56 
f 57/57/57 58/58/58 59/59/59 
f 58/58/58 57/57/57 60/60/60 
f 61/61/61 62/62/62 63/63/63 
f 61/61/61 63/63/63 64/64/64 
f 65/65/65 66/66/66 67/67/67 
f 66/66/66 65/65/65 68/68/68 
f 69/69/69 70/70/70 71/71/71 
f 70/70/70 69/69/69 72/72/72 

g Top1

v 1.5 1.69998 -1.5 
v -1.5 1.49998 -1.5 
v -1.5 1.69998 -1.5 
v 1.5 1.49998 -1.5 
v 1.5 1.69998 1.5 
v 1.5 1.49998 -1.5 
v 1.5 1.69998 -1.5 
v 1.5 1.49998 1.5 
v -1.5 1.69998 -1.5 
v -1.5 1.49998 1.5 
v -1.5 1.69998 1.5 
v -1.5 1.49998 -1.5 
v -1.5 1.69998 1.5 
v 1.5 1.49998 1.5 
v 1.5 1.69998 1.5 
v -1.5 1.49998 1.5 
v 1.5 1.69998 1.5 
v 1.5 1.69998 -1.5 
v -1.5 1.69998 1.5 
v -1.5 1.69998 -1.5 
v -1.5 1.49998 -1.5 
v 1.5 1.49998 -1.5 
v 1.5 1.49998 1.5 
v -1.5 1.49998 1.5 

vn 0 0 -1 
vn 0 0 -1 
vn 0 0 -1 
vn 0 0 -1 
vn 1 0 0 
vn 1 0 0 
vn 1 0 0 
vn 1 0 0 
vn -1 0 0 
vn -1 0 0 
vn -1 0 0 
vn -1 0 0 
vn 0 0 1 
vn 0 0 1 
vn 0 0 1 
vn 0 0 1 
vn 0 1 0 
vn 0 1 0 
vn 0 1 0 
vn 0 1 0 
vn 0 -1 0 
vn 0 -1 0 
vn 0 -1 0 
vn 0 -1 0 

vt 0.9999 8.89897e-05 
vt 9.99868e-05 0.0667423 
vt 0.000100076 8.89897e-05 
vt 0.9999 0.0667424 
vt 9.99868e-05 0.0667423 
vt 0.9999 8.89897e-05 
vt 0.9999 0.0667424 
vt 0.000100076 8.89897e-05 
vt 0.9999 8.89897e-05 
vt 9.99868e-05 0.0667423 
vt 0.000100076 8.89897e-05 
vt 0.9999 0.0667424 
vt 9.99868e-05 0.0667423 
vt 0.9999 8.89897e-05 
vt 0.9999 0.0667424 
vt 0.000100076 8.89897e-05 
vt 0.9999 9.9957e-05 
vt 0.9999 0.9999 
vt 9.998e-05 0.000100315 
vt 0.000100099 0.9999 
vt 0.9999 0.9999 
vt 0.00010004 0.9999 
vt 9.998e-05 0.000100076 
vt 0.9999 9.9957e-05 

usemtl Top1Mtl

f 73/73/73 74/74/74 75/75/75 
f 74/74/74 73/73/73 76/76/76 
f 77/77/77 78/78/78 79/79/79 
f 78/78/78 77/77/77 80/80/80 
f 81/81/81 82/82/82 83/83/83 
f 82/82/82 81/81/81 84/84/84 
f 85/85/85 86/86/86 87/87/87 
f 86/86/86 85/85/85 88/88/88 
f 89/89/89 90/90/90 91/91/91 
f 91/91/91 90/90/90 92/92/92 
f 93/93/93 94/94/94 95/95/95 
f 93/93/93 95/95/95 96/96/96 

g Root4

v 1.5 1.5 1.5 
v 1.5 1.5 -1.5 
v -1.5 1.5 1.5 
v -1.5 1.5 -1.5 
v 1.5 1.5 -1.5 
v -1.5 -1.5 -1.5 
v -1.5 1.5 -1.5 
v 1.5 -1.5 -1.5 
v 1.5 1.5 1.5 
v 1.5 -1.5 -1.5 
v 1.5 1.5 -1.5 
v 1.5 -1.5 1.5 
v -1.5 -1.5 -1.5 
v 1.5 -1.5 -1.5 
v 1.5 -1.5 1.5 
v -1.5 -1.5 1.5 
v -1.5 1.5 -1.5 
v -1.5 -1.5 1.5 
v -1.5 1.5 1.5 
v -1.5 -1.5 -1.5 
v -1.5 1.5 1.5 
v 1.5 -1.5 1.5 
v 1.5 1.5 1.5 
v -1.5 -1.5 1.5 

vn 0 1 0 
vn 0 1 0 
vn 0 1 0 
vn 0 1 0 
vn 0 0 -1 
vn 0 0 -1 
vn 0 0 -1 
vn 0 0 -1 
vn 1 0 0 
vn 1 0 0 
vn 1 0 0 
vn 1 0 0 
vn 0 -1 0 
vn 0 -1 0 
vn 0 -1 0 
vn 0 -1 0 
vn -1 0 0 
vn -1 0 0 
vn -1 0 0 
vn -1 0 0 
vn 0 0 1 
vn 0 0 1 
vn 0 0 1 
vn 0 0 1 

vt 0 1 
vt 0 0 
vt 1 1 
vt 1 0 
vt 0 1 
vt 1 0 
vt 1 1 
vt 0 0 
vt 1 1 
vt 0 0 
vt 0 1 
vt 1 0 
vt 1 0 
vt 0 0 
vt 0 1 
vt 1 1 
vt 0 1 
vt 1 0 
vt 1 1 
vt 0 0 
vt 1 1 
vt 0 0 
vt 0 1 
vt 1 0 

usemtl Root3Mtl

f 97/97/97 98/98/98 99/99/99 
f 99/99/99 98/98/98 100/100/100 
f 101/101/101 102/102/102 103/103/103 
f 102/102/102 101/101/101 104/104/104 
f 105/105/105 106/106/106 107/107/107 
f 106/106/106 105/105/105 108/108/108 
f 109/109/109 110/110/110 111/111/111 
f 109/109/109 111/111/111 112/112/112 
f 113/113/113 114/114/114 115/115/115 
f 114/114/114 113/113/113 116/116/116 
f 117/117/117 118/118/118 119/119/119 
f 118/118/118 117/117/117 120/120/120 

g Root5

v 1.5 1.52 1.5 
v 1.5 1.52 -1.5 
v -1.5 1.52 1.5 
v -1.5 1.52 -1.5 

vn 0 1 0 
vn 0 1 0 
vn 0 1 0 
vn 0 1 0 

vt 0 1 
vt 0 2.38419e-07 
vt 1 1 
vt 1 2.38419e-07 

usemtl Root5Mtl

f 121/121/121 122/122/122 123/123/123 
f 123/123/123 122/122/122 124/124/124 

g Root6

v 1.5 1.5 1.5 
v 1.5 1.5 -1.5 
v -1.5 1.5 1.5 
v -1.5 1.5 -1.5 
v 1.5 1.5 -1.5 
v -1.5 -1.5 -1.5 
v -1.5 1.5 -1.5 
v 1.5 -1.5 -1.5 
v 1.5 1.5 1.5 
v 1.5 -1.5 -1.5 
v 1.5 1.5 -1.5 
v 1.5 -1.5 1.5 
v -1.5 -1.5 -1.5 
v 1.5 -1.5 -1.5 
v 1.5 -1.5 1.5 
v -1.5 -1.5 1.5 
v -1.5 1.5 -1.5 
v -1.5 -1.5 1.5 
v -1.5 1.5 1.5 
v -1.5 -1.5 -1.5 
v -1.5 1.5 1.5 
v 1.5 -1.5 1.5 
v 1.5 1.5 1.5 
v -1.5 -1.5 1.5 

vn 0 1 0 
vn 0 1 0 
vn 0 1 0 
vn 0 1 0 
vn 0 0 -1 
vn 0 0 -1 
vn 0 0 -1 
vn 0 0 -1 
vn 1 0 0 
vn 1 0 0 
vn 1 0 0 
vn 1 0 0 
vn 0 -1 0 
vn 0 -1 0 
vn 0 -1 0 
vn 0 -1 0 
vn -1 0 0 
vn -1 0 0 
vn -1 0 0 
vn -1 0 0 
vn 0 0 1 
vn 0 0 1 
vn 0 0 1 
vn 0 0 1 

vt 0 1 
vt 0 0 
vt 1 1 
vt 1 0 
vt 0 1 
vt 1 0 
vt 1 1 
vt 0 0 
vt 1 1 
vt 0 0 
vt 0 1 
vt 1 0 
vt 1 0 
vt 0 0 
vt 0 1 
vt 1 1 
vt 0 1 
vt 1 0 
vt 1 1 
vt 0 0 
vt 1 1 
vt 0 0 
vt 0 1 
vt 1 0 

usemtl Root6Mtl

f 125/125/125 126/126/126 127/127/127 
f 127/127/127 126/126/126 128/128/128 
f 129/129/129 130/130/130 131/131/131 
f 130/130/130 129/129/129 132/132/132 
f 133/133/133 134/134/134 135/135/135 
f 134/134/134 133/133/133 136/136/136 
f 137/137/137 138/138/138 139/139/139 
f 137/137/137 139/139/139 140/140/140 
f 141/141/141 142/142/142 143/143/143 
f 142/142/142 141/141/141 144/144/144 
f 145/145/145 146/146/146 147/147/147 
f 146/146/146 145/145/145 148/148/148 

g Root7

v 1.5 1.5 1.5 
v 1.5 1.5 -1.5 
v -1.5 1.5 1.5 
v -1.5 1.5 -1.5 
v 1.5 1.5 -1.5 
v -1.5 -1.5 -1.5 
v -1.5 1.5 -1.5 
v 1.5 -1.5 -1.5 
v 1.5 1.5 1.5 
v 1.5 -1.5 -1.5 
v 1.5 1.5 -1.5 
v 1.5 -1.5 1.5 
v -1.5 -1.5 -1.5 
v 1.5 -1.5 -1.5 
v 1.5 -1.5 1.5 
v -1.5 -1.5 1.5 
v -1.5 1.5 -1.5 
v -1.5 -1.5 1.5 
v -1.5 1.5 1.5 
v -1.5 -1.5 -1.5 
v -1.5 1.5 1.5 
v 1.5 -1.5 1.5 
v 1.5 1.5 1.5 
v -1.5 -1.5 1.5 

vn 0 1 0 
vn 0 1 0 
vn 0 1 0 
vn 0 1 0 
vn 0 0 -1 
vn 0 0 -1 
vn 0 0 -1 
vn 0 0 -1 
vn 1 0 0 
vn 1 0 0 
vn 1 0 0 
vn 1 0 0 
vn 0 -1 0 
vn 0 -1 0 
vn 0 -1 0 
vn 0 -1 0 
vn -1 0 0 
vn -1 0 0 
vn -1 0 0 
vn -1 0 0 
vn 0 0 1 
vn 0 0 1 
vn 0 0 1 
vn 0 0 1 

vt 0.5 1 
vt 0.5 0 
vt 1 1 
vt 1 0 
vt 0 1 
vt 0.5 0 
vt 0.5 1 
vt 0 0 
vt 0.5 1 
vt 0 0 
vt 0 1 
vt 0.5 0 
vt 1 0 
vt 0.5 0 
vt 0.5 1 
vt 1 1 
vt 0 1 
vt 0.5 0 
vt 0.5 1 
vt 0 0 
vt 0.5 1 
vt 0 0 
vt 0 1 
vt 0.5 0 

usemtl Root7Mtl

f 149/149/149 150/150/150 151/151/151 
f 151/151/151 150/150/150 152/152/152 
f 153/153/153 154/154/154 155/155/155 
f 154/154/154 153/153/153 156/156/156 
f 157/157/157 158/158/158 159/159/159 
f 158/158/158 157/157/157 160/160/160 
f 161/161/161 162/162/162 163/163/163 
f 161/161/161 163/163/163 164/164/164 
f 165/165/165 166/166/166 167/167/167 
f 166/166/166 165/165/165 168/168/168 
f 169/169/169 170/170/170 171/171/171 
f 170/170/170 169/169/169 172/172/172 

g Root8

v 1.5 1.5 1.5 
v 1.5 1.5 -1.5 
v -1.5 1.5 1.5 
v -1.5 1.5 -1.5 
v 1.5 1.5 -1.5 
v -1.5 -1.5 -1.5 
v -1.5 1.5 -1.5 
v 1.5 -1.5 -1.5 
v 1.5 1.5 1.5 
v 1.5 -1.5 -1.5 
v 1.5 1.5 -1.5 
v 1.5 -1.5 1.5 
v -1.5 -1.5 -1.5 
v 1.5 -1.5 -1.5 
v 1.5 -1.5 1.5 
v -1.5 -1.5 1.5 
v -1.5 1.5 -1.5 
v -1.5 -1.5 1.5 
v -1.5 1.5 1.5 
v -1.5 -1.5 -1.5 
v -1.5 1.5 1.5 
v 1.5 -1.5 1.5 
v 1.5 1.5 1.5 
v -1.5 -1.5 1.5 

vn 0 1 0 
vn 0 1 0 
vn 0 1 0 
vn 0 1 0 
vn 0 0 -1 
vn 0 0 -1 
vn 0 0 -1 
vn 0 0 -1 
vn 1 0 0 
vn 1 0 0 
vn 1 0 0 
vn 1 0 0 
vn 0 -1 0 
vn 0 -1 0 
vn 0 -1 0 
vn 0 -1 0 
vn -1 0 0 
vn -1 0 0 
vn -1 0 0 
vn -1 0 0 
vn 0 0 1 
vn 0 0 1 
vn 0 0 1 
vn 0 0 1 

vt 0 1 
vt 0 0 
vt 1 1 
vt 1 0 
vt 0 1 
vt 1 0 
vt 1 1 
vt 0 0 
vt 1 1 
vt 0 0 
vt 0 1 
vt 1 0 
vt 1 0 
vt 0 0 
vt 0 1 
vt 1 1 
vt 0 1 
vt 1 0 
vt 1 1 
vt 0 0 
vt 1 1 
vt 0 0 
vt 0 1 
vt 1 0 

usemtl Root8Mtl

f 173/173/173 174/174/174 175/175/175 
f 175/175/175 174/174/174 176/176/176 
f 177/177/177 178/178/178 179/179/179 
f 178/178/178 177/177/177 180/180/180 
f 181/181/181 182/182/182 183/183/183 
f 182/182/182 181/181/181 184/184/184 
f 185/185/185 186/186/186 187/187/187 
f 185/185/185 187/187/187 188/188/188 
f 189/189/189 190/190/190 191/191/191 
f 190/190/190 189/189/189 192/192/192 
f 193/193/193 194/194/194 195/195/195 
f 194/194/194 193/193/193 196/196/196 

g Meshpart1

v 1.5 -0.000256777 -1.5 
v -1.5 -1.50026 -1.5 
v -1.5 -0.000256777 -1.5 
v 1.5 -1.50026 -1.5 
v 1.5 1.49974 -3.66572e-07 
v -1.5 1.49974 -3.66572e-07 
v -1.5 1.49974 1.5 
v 1.5 1.49974 1.5 
v -1.5 -0.000256777 -1.5 
v -1.5 -1.50026 1.22191e-07 
v -1.5 -0.000256538 -1.22191e-07 
v -1.5 -1.50026 -1.5 
v -1.5 -1.50026 1.5 
v -1.5 -0.0002563 1.5 
v -1.5 1.49974 1.5 
v -1.5 1.49974 -3.66572e-07 
v 1.5 -0.0002563 1.5 
v 1.5 -1.50026 1.22191e-07 
v 1.5 -0.000256538 -1.22191e-07 
v 1.5 -1.50026 1.5 
v 1.5 -1.50026 -1.5 
v 1.5 -0.000256777 -1.5 
v 1.5 1.49974 -3.66572e-07 
v 1.5 1.49974 1.5 
v -1.5 -0.0002563 1.5 
v 1.5 -1.50026 1.5 
v 1.5 -0.0002563 1.5 
v -1.5 -1.50026 1.5 
v 1.5 1.49974 1.5 
v 1.5 -0.0002563 1.5 
v -1.5 1.49974 1.5 
v 1.5 -1.50026 1.5 
v -1.5 -1.50026 1.5 
v -1.5 -1.50026 1.22191e-07 
v 1.5 -1.50026 1.22191e-07 
v -1.5 -1.50026 -1.5 
v 1.5 -1.50026 -1.5 
v 1.5 -0.000256777 -1.5 
v -1.5 -0.000256777 -1.5 
v -1.5 -0.000256538 -1.22191e-07 
v 1.5 -0.000256538 -1.22191e-07 
v -1.5 1.49974 -3.66572e-07 
v 1.5 1.49974 -3.66572e-07 
v 1.5 -0.000256538 -1.22191e-07 
v -1.5 -0.000256538 -1.22191e-07 

vn 0 0 -1 
vn 0 0 -1 
vn 0 0 -1 
vn 0 0 -1 
vn 0 1 0 
vn 0 1 0 
vn 0 1 0 
vn 0 1 0 
vn -1 0 0 
vn -1 0 0 
vn -1 0 0 
vn -1 0 0 
vn -1 0 0 
vn -1 0 0 
vn -1 0 0 
vn -1 0 0 
vn 1 0 0 
vn 1 0 0 
vn 1 0 0 
vn 1 0 0 
vn 1 0 0 
vn 1 0 0 
vn 1 0 0 
vn 1 0 0 
vn 0 0 1 
vn 0 0 1 
vn 0 0 1 
vn 0 0 1 
vn 0 0 1 
vn 0 0 1 
vn 0 0 1 
vn 0 -1 0 
vn 0 -1 0 
vn 0 -1 0 
vn 0 -1 0 
vn 0 -1 0 
vn 0 -1 0 
vn 0 1 0 
vn 0 1 0 
vn 0 1 0 
vn 0 1 0 
vn 0 0 -1 
vn 0 0 -1 
vn 0 0 -1 
vn 0 0 -1 

vt 9.99868e-05 0.49995 
vt 0.9999 5.00083e-05 
vt 0.9999 0.49995 
vt 0.000100076 4.99487e-05 
vt 0.999929 0.5 
vt 7.06911e-05 0.5 
vt 7.06911e-05 7.07507e-05 
vt 0.999929 7.06315e-05 
vt 0.000106096 0.5 
vt 0.500035 7.06911e-05 
vt 0.500035 0.5 
vt 0.000106096 7.06911e-05 
vt 0.999965 7.06911e-05 
vt 0.999964 0.5 
vt 0.999964 0.999929 
vt 0.500035 0.999929 
vt 0.000106215 0.499998 
vt 0.500037 7.08103e-05 
vt 0.500035 0.5 
vt 0.000107765 6.91414e-05 
vt 0.999966 7.236e-05 
vt 0.999965 0.500002 
vt 0.500034 0.999929 
vt 0.000104666 0.999928 
vt 0.000106215 0.5 
vt 0.999965 7.06315e-05 
vt 0.999965 0.5 
vt 0.000106215 7.07507e-05 
vt 0.999965 0.999929 
vt 0.999965 0.5 
vt 0.000105977 0.999929 
vt 0.000100069 9.9957e-05 
vt 0.9999 0.000100136 
vt 0.9999 0.5 
vt 0.00010004 0.5 
vt 0.9999 0.9999 
vt 9.998e-05 0.9999 
vt 0.999929 1 
vt 7.06911e-05 1 
vt 7.06911e-05 0.500071 
vt 0.999929 0.500071 
vt 0.000100076 0.50005 
vt 0.9999 0.50005 
vt 0.9999 0.99995 
vt 9.9957e-05 0.99995 

usemtl Root6Mtl

f 197/197/197 198/198/198 199/199/199 
f 198/198/198 197/197/197 200/200/200 
f 201/201/201 202/202/202 203/203/203 
f 201/201/201 203/203/203 204/204/204 
f 205/205/205 206/206/206 207/207/207 
f 206/206/206 205/205/205 208/208/208 
f 209/209/209 207/207/207 206/206/206 
f 207/207/207 209/209/209 210/210/210 
f 211/211/211 207/207/207 210/210/210 
f 212/212/212 207/207/207 211/211/211 
f 213/213/213 214/214/214 215/215/215 
f 214/214/214 213/213/213 216/216/216 
f 217/217/217 215/215/215 214/214/214 
f 215/215/215 217/217/217 218/218/218 
f 219/219/219 213/213/213 215/215/215 
f 220/220/220 213/213/213 219/219/219 
f 221/221/221 222/222/222 223/223/223 
f 222/222/222 221/221/221 224/224/224 
f 225/225/225 221/221/221 226/226/226 
f 225/225/225 227/227/227 221/221/221 
f 228/228/228 229/229/229 230/230/230 
f 228/228/228 230/230/230 231/231/231 
f 231/231/231 230/230/230 232/232/232 
f 231/231/231 232/232/232 233/233/233 
f 234/234/234 235/235/235 236/236/236 
f 234/234/234 236/236/236 237/237/237 
f 238/238/238 239/239/239 240/240/240 
f 238/238/238 240/240/240 241/241/241 

g Bottom1

v 1.5 -7.15256e-07 -1.5 
v -1.5 -1.5 -1.5 
v -1.5 -7.15256e-07 -1.5 
v 1.5 -1.5 -1.5 
v 1.5 -1.19209e-06 1.5 
v 1.5 -1.5 -1.5 
v 1.5 -7.15256e-07 -1.5 
v 1.5 -1.5 1.5 
v -1.5 -7.15256e-07 -1.5 
v -1.5 -1.5 1.5 
v -1.5 -1.19209e-06 1.5 
v -1.5 -1.5 -1.5 
v -1.5 -1.19209e-06 1.5 
v 1.5 -1.5 1.5 
v 1.5 -1.19209e-06 1.5 
v -1.5 -1.5 1.5 
v 1.5 -1.19209e-06 1.5 
v 1.5 -7.15256e-07 -1.5 
v -1.5 -1.19209e-06 1.5 
v -1.5 -7.15256e-07 -1.5 
v -1.5 -1.5 -1.5 
v 1.5 -1.5 -1.5 
v 1.5 -1.5 1.5 
v -1.5 -1.5 1.5 

vn 0 0 -1 
vn 0 0 -1 
vn 0 0 -1 
vn 0 0 -1 
vn 1 0 0 
vn 1 0 0 
vn 1 0 0 
vn 1 0 0 
vn -1 0 0 
vn -1 0 0 
vn -1 0 0 
vn -1 0 0 
vn 0 0 1 
vn 0 0 1 
vn 0 0 1 
vn 0 0 1 
vn 0 1 0 
vn 0 1 0 
vn 0 1 0 
vn 0 1 0 
vn 0 -1 0 
vn 0 -1 0 
vn 0 -1 0 
vn 0 -1 0 

vt 0 0.5 
vt 1 0 
vt 1 0.5 
vt 0 0 
vt 1 0.5 
vt 0 0 
vt 0 0.5 
vt 1 0 
vt 0 0.5 
vt 1 0 
vt 1 0.5 
vt 0 0 
vt 1 0.5 
vt 0 0 
vt 0 0.5 
vt 1 0 
vt 0 1 
vt 0 0 
vt 1 1 
vt 1 0 
vt 1 0 
vt 0 0 
vt 0 1 
vt 1 1 

usemtl Root6Mtl

f 242/242/242 243/243/243 244/244/244 
f 243/243/243 242/242/242 245/245/245 
f 246/246/246 247/247/247 248/248/248 
f 247/247/247 246/246/246 249/249/249 
f 250/250/250 251/251/251 252/252/252 
f 251/251/251 250/250/250 253/253/253 
f 254/254/254 255/255/255 256/256/256 
f 255/255/255 254/254/254 257/257/257 
f 258/258/258 259/259/259 260/260/260 
f 260/260/260 259/259/259 261/261/261 
f 262/262/262 263/263/263 264/264/264 
f 262/262/262 264/264/264 265/265/265 

